<svg xmlns="http://www.w3.org/2000/svg" viewBox="0 0 357.34 493.607">
  <defs>
    <style>
      .cls-1 {
        font-size: 150px;
        font-family: LucidaGrande, Lucida Grande;
      }
    </style>
  </defs>
  <g id="noun_Money_1347090" transform="translate(-69.608 -74.252)">
    <path id="Path_28" data-name="Path 28" d="M188.807,235.067l14.712,94.645A29.933,29.933,0,0,0,237.7,354.7l53.806-8.365c-24.98,31.4-38.924,72.533-38.924,116.635v1.278c.357,57.136,47.843,103.613,105.846,103.613h81.507c58.013,0,105.495-46.489,105.846-103.624l.005-1.267c0-66.51-35.693-109.614-76.011-153.025a24.492,24.492,0,0,0,10.812-8.864,26.862,26.862,0,0,0,.817-28.689c15.875-4.147,26.56-18.25,24.273-32.967a26.756,26.756,0,0,0-8.59-15.578,33.233,33.233,0,0,0,5.864-5.414,29.276,29.276,0,0,0,6.5-22.94,28.921,28.921,0,0,0-13.17-19.9c-.159-.1-.335-.159-.494-.258.126-.148.285-.258.411-.411a28.834,28.834,0,0,0,6.5-22.9c-2.43-15.633-17.581-26.423-34.421-25.063l11.508-19.138a7.879,7.879,0,0,0,.406-.768A15.879,15.879,0,0,0,478.16,90.3a16.041,16.041,0,0,0-16.335-5.491c-16.56,3.692-27.679.543-41.76-3.45-11.761-3.335-25.2-7.027-43.411-7.1H350.707c-7.361-.011-13.829,3.6-16.763,9.643a16.4,16.4,0,0,0,2.161,17.6l13.807,17.081-8.217,1.278a34.461,34.461,0,0,0-24.6,16.895c-.038.066-.055.132-.088.2L292.1,180.29a135.263,135.263,0,0,0-5.787,12.918,29.77,29.77,0,0,0-14.514-1.344l-58,9.018A29.978,29.978,0,0,0,188.807,235.067Zm340.537,227.9-.005,1.163c-.3,48.118-40.4,87.272-89.39,87.272H358.442c-48.99,0-89.093-39.144-89.39-87.261v-1.174c0-49.111,19.8-95.807,52.956-124.918.192-.17.373-.346.549-.532l9.232-9.83a7.8,7.8,0,0,0,.642-.768L345.194,309.6a186.853,186.853,0,0,1,12.3-14.531c11.053-12.2,22.485-24.821,27.783-45.424a8.293,8.293,0,0,0,.2-1.1l.828-7.12h4.9a8.228,8.228,0,0,0,0-16.456h-2.99l2.019-17.35a31.593,31.593,0,0,0,13.9,4.619,28.415,28.415,0,0,0,8.771,16.006c-9.084,6.462-14.306,16.846-12.644,27.564A27.276,27.276,0,0,0,412.434,274.2a26.694,26.694,0,0,0-4.646,19.687c1.98,12.715,12.743,22.3,25.041,22.3a24.406,24.406,0,0,0,3.664-.28l14.289-2.222C493.25,359.042,529.344,399.019,529.344,462.967ZM430.986,280.458l27.679-4.306a7.315,7.315,0,0,1,1.141-.088c4.262,0,8.036,3.6,8.777,8.376a10.266,10.266,0,0,1-1.591,7.383,7.943,7.943,0,0,1-5.343,3.522l-27.679,4.306c-4.717.735-9.117-3.088-9.923-8.283S426.416,281.166,430.986,280.458ZM475.214,256.9l-40.592,6.308c-8.886,1.382-17.065-3.341-18.085-9.934-1.048-6.747,5.463-13.6,14.218-14.959l40.6-6.308a20.635,20.635,0,0,1,3.154-.247c7.614,0,14.032,4.377,14.931,10.181C490.48,248.692,483.969,255.544,475.214,256.9ZM493.2,198.018a12.6,12.6,0,0,1-2.946,9.956,17.861,17.861,0,0,1-11.1,6.155l-40.6,6.308c-8.661,1.349-16.944-3.653-18.189-10.927a32.7,32.7,0,0,0,6.824-4.1c4.152-3.253,8.1-7.477,10.1-12.671l37.641-5.853a17.69,17.69,0,0,1,12.4,2.5A12.714,12.714,0,0,1,493.2,198.018Zm-25.03-54.5c8.76-1.371,17.131,3.692,18.272,11.042a12.588,12.588,0,0,1-2.951,9.918,17.863,17.863,0,0,1-11.108,6.155L436.531,176.2a38.38,38.38,0,0,0-4.849-8.157l-9.89-16.286a18.66,18.66,0,0,1,5.771-1.936ZM348.738,91.1a3.392,3.392,0,0,1,1.865-.395h26.056c16.105.159,27.657,3.286,38.919,6.484,14.745,4.185,28.683,8.14,49.105,3.84l-17.493,29.1-22.144,3.445a34.782,34.782,0,0,0-11.772,4.158L406.631,126.8a7.991,7.991,0,0,0-.554-.8,31.5,31.5,0,0,0-29.7-11.519l-7.674,1.19ZM274.313,208.128a13.49,13.49,0,0,1,15.386,11.19l.11.7a8.228,8.228,0,0,0,16.259-2.545l-.093-.614a29.761,29.761,0,0,0-5.782-13.554,101.828,101.828,0,0,1,6.368-15.173l24.794-43.11-.016-.011a18.075,18.075,0,0,1,12.885-8.881l34.689-5.392a15.106,15.106,0,0,1,13.938,5.058l25.019,41.2a8.892,8.892,0,0,0,.549.8c5.727,7.334,4.8,9.846-1.382,14.684a16.081,16.081,0,0,1-7.542,3.286,15.029,15.029,0,0,1-14.213-5.4l-14.811-18.93-.044.033a8.164,8.164,0,0,0-6.275-3.149,8.027,8.027,0,0,0-8.382,8.069c-.675,35.8-13.275,60.207-38.535,74.618a8.225,8.225,0,1,0,8.151,14.289,86.545,86.545,0,0,0,36.061-38.452l-2.238,19.237c-4.35,16.368-13.851,26.856-23.905,37.953a201.994,201.994,0,0,0-13.362,15.825l-11.059,15a31.377,31.377,0,0,0-.186-3.357l-10.691-68.677a8.23,8.23,0,0,0-16.264,2.529l10.675,68.682a13.493,13.493,0,0,1-11.25,15.392l-58,9.018a13.542,13.542,0,0,1-15.392-11.251l-14.706-94.65a13.493,13.493,0,0,1,11.25-15.392Z" transform="translate(-118.841)"/>
    <text id="_" data-name="₦" class="cls-1" transform="translate(232.566 478.331)"><tspan x="0" y="0">₦</tspan></text>
  </g>
</svg>
