<svg xmlns="http://www.w3.org/2000/svg" viewBox="0 0 217.433 453.9">
  <g id="Group_11" data-name="Group 11" transform="translate(-119.502 -8.126)">
    <g id="Group_6" data-name="Group 6">
      <path id="Path_20" data-name="Path 20" d="M266.646,339.254H189.659l-1.881-4.089c-1.156-2.517-28.429-62.452-38.037-132.563-12.977-94.689,13.37-161.394,76.2-192.9l3.144-1.577L232.225,9.7C295.07,41.219,321.1,107.942,307.5,202.65c-10.063,70.106-37.79,130.041-38.964,132.558ZM226.124,325.22h31.488c13.543-31.343,95.536-235.069-28.527-301.348-124.067,66.265-43.693,269.86-30.328,301.348Z"/>
    </g>
    <g id="Group_7" data-name="Group 7">
      <path id="Path_21" data-name="Path 21" d="M119.5,352.377l43.96-119.329,37.682,94.193ZM164,272.185l-21.533,58.439,39.984-12.308Z"/>
    </g>
    <g id="Group_8" data-name="Group 8">
      <path id="Path_22" data-name="Path 22" d="M336.934,352.7l-79.186-25.411,31.745-95.232Zm-61.386-34.44L313.043,330.3l-22.459-57.124Z"/>
    </g>
    <g id="Group_9" data-name="Group 9">
      <path id="Path_23" data-name="Path 23" d="M229.96,462.026l-20.878-90.17a21.131,21.131,0,0,1,42.262,0l-.192,1.637Zm-6.816-90.844,6.98,29.865,7.148-29.884a7.1,7.1,0,0,0-14.128.019Z"/>
    </g>
    <g id="Group_10" data-name="Group 10">
      <path id="Path_24" data-name="Path 24" d="M228.164,166.114a37.544,37.544,0,1,1,37.546-37.546A37.589,37.589,0,0,1,228.164,166.114Zm0-61.054a23.51,23.51,0,1,0,23.512,23.507A23.537,23.537,0,0,0,228.164,105.06Z"/>
    </g>
  </g>
</svg>
