<svg xmlns="http://www.w3.org/2000/svg" viewBox="0 0 244.351 392.408">
  <g id="noun_phone_in_hand_1888757" data-name="noun_phone in hand_1888757" transform="translate(-472.86 -202.275)">
    <path id="Path_25" data-name="Path 25" d="M823.592,1135.981h-8.283a16.808,16.808,0,0,0-16.788,16.788v8.283a16.808,16.808,0,0,0,16.788,16.792h8.283a16.81,16.81,0,0,0,16.793-16.792v-8.283A16.809,16.809,0,0,0,823.592,1135.981Zm1.7,25.071a1.7,1.7,0,0,1-1.7,1.7h-8.283a1.7,1.7,0,0,1-1.7-1.7v-8.283a1.7,1.7,0,0,1,1.7-1.695h8.283a1.7,1.7,0,0,1,1.7,1.695Z" transform="translate(-236.565 -678.257)"/>
    <path id="Path_26" data-name="Path 26" d="M799.639,304.677h30.288a7.546,7.546,0,0,0,0-15.093H799.639a7.546,7.546,0,1,0,0,15.093Z" transform="translate(-231.895 -63.423)"/>
    <path id="Path_27" data-name="Path 27" d="M681.2,367.994V235.7a33.458,33.458,0,0,0-33.418-33.423H517.99A33.462,33.462,0,0,0,484.568,235.7v56.617a23.873,23.873,0,0,0-4.176,3.385A25.748,25.748,0,0,0,480.4,332.1l-.012.01a25.749,25.749,0,0,0,.011,36.406l-.011.009a25.749,25.749,0,0,0,.01,36.405l-.006,0a25.716,25.716,0,0,0,4.171,39.754v52.4a33.49,33.49,0,0,0,33.423,33.482h9.126c7.662,25.281,23.326,29.271,32.384,29.271h8.565l8.974,29.483a7.54,7.54,0,0,0,7.217,5.35H701.411a7.547,7.547,0,0,0,7.173-9.89l-12.13-37.116c12.941-11.45,20.758-35.059,20.758-52.983,0-59.55-8.951-76.234-30.578-116.545C684.913,374.943,683.092,371.546,681.2,367.994ZM532.636,423.156a10.575,10.575,0,0,1-3.076,7.5,10.8,10.8,0,0,1-7.586,3.164H498.614a10.76,10.76,0,0,1-3.8-.677,10.7,10.7,0,0,1-3.667-17.609,10.418,10.418,0,0,1,3.665-2.363,10.667,10.667,0,0,1,3.8-.673h23.361A10.67,10.67,0,0,1,532.636,423.156Zm0-36.415a10.575,10.575,0,0,1-3.076,7.5,10.8,10.8,0,0,1-7.586,3.164H498.614a10.762,10.762,0,0,1-3.793-.673,10.7,10.7,0,0,1-3.675-17.613,10.418,10.418,0,0,1,3.665-2.363,10.667,10.667,0,0,1,3.8-.673h23.361A10.67,10.67,0,0,1,532.636,386.742Zm0-36.415a10.575,10.575,0,0,1-3.076,7.5,10.8,10.8,0,0,1-7.586,3.164H498.614a10.762,10.762,0,0,1-3.793-.673,10.7,10.7,0,0,1-3.675-17.613,10.417,10.417,0,0,1,3.665-2.363,10.667,10.667,0,0,1,3.8-.673h23.361A10.67,10.67,0,0,1,532.636,350.327Zm-3.071-28.918a10.815,10.815,0,0,1-7.591,3.164H498.614a10.673,10.673,0,0,1-7.468-18.286,10.417,10.417,0,0,1,3.665-2.363,10.667,10.667,0,0,1,3.8-.673h23.361a10.669,10.669,0,0,1,7.591,18.158ZM499.66,497.1V448.91h22.315a25.742,25.742,0,0,0,18.207-43.951l0,0a25.738,25.738,0,0,0,0-36.41l0,0a25.786,25.786,0,0,0,7.017-23.395c-.032-.156-.1-.295-.14-.45a25.635,25.635,0,0,0-1.363-4.382c-.022-.052-.058-.1-.081-.149a25.84,25.84,0,0,0-5.433-8.03s0,0,0-.01a25.76,25.76,0,0,0-18.217-43.966H499.66V235.7a18.353,18.353,0,0,1,18.33-18.33h129.8a18.349,18.349,0,0,1,18.325,18.33V355.9c-.081-.027-.168-.037-.25-.064-.9-.294-1.826-.5-2.753-.7-.466-.1-.92-.245-1.391-.326a29.4,29.4,0,0,0-2.938-.3c-.45-.031-.891-.107-1.343-.117a29.865,29.865,0,0,0-3.169.148c-.4.033-.793.017-1.191.067a30.67,30.67,0,0,0-4.366.863,29.415,29.415,0,0,0-21.4,23.447c-.021.116-.062.224-.082.341l-.953,5.385a30.783,30.783,0,0,0,2.52,17.706l37.314,78.013v16.792a18.378,18.378,0,0,1-16.822,18.237c-.1.01-.521.064-.629.074a6.461,6.461,0,0,1-.875.02H517.99A18.381,18.381,0,0,1,499.66,497.1Zm90.187,82.493-6-19.74H657.97a75.176,75.176,0,0,0,8.12-.485c.775-.083,1.532-.2,2.3-.3q3.019-.426,5.925-1.1c.676-.156,1.36-.285,2.026-.461a63.983,63.983,0,0,0,6.747-2.142l7.92,24.231ZM683.8,538.341c-7.222,4.2-16.159,6.416-25.832,6.416H559.5c-7.207,0-12.72-4.761-16.453-14.179H647.786a20.934,20.934,0,0,0,2.982-.167c.713-.063,1.409-.181,2.109-.289.348-.053.7-.08,1.048-.144.118-.022.23-.059.348-.082A33.629,33.629,0,0,0,680.6,503.461a33.008,33.008,0,0,0,.607-6.306v-18.5a7.556,7.556,0,0,0-.737-3.257l-38.036-79.521a15.415,15.415,0,0,1-1.268-8.755l.933-5.267c0-.029.01-.054.015-.083A14.346,14.346,0,0,1,652.7,370.028a15.819,15.819,0,0,1,2.091-.426c.272-.037.54-.035.81-.057.421-.034.842-.078,1.258-.076.306,0,.6.041.906.062.374.025.749.039,1.116.093.31.046.61.127.915.193.35.076.7.142,1.044.244.3.089.589.211.882.32.334.125.67.242.995.392.284.131.557.292.833.442.316.172.633.341.937.538.267.173.521.371.777.562.294.219.588.436.868.679.247.214.482.45.718.683.206.2.408.41.6.627,2.057,3.871,4.015,7.519,5.875,10.98,20.949,39.043,28.785,53.654,28.785,109.412C702.118,510.047,694.14,532.445,683.8,538.341Z" transform="translate(0)"/>
  </g>
</svg>
