<svg xmlns="http://www.w3.org/2000/svg" viewBox="0 0 178.783 71.446">
  <defs>
    <style>
      .cls-1 {
        fill: #fff;
      }
    </style>
  </defs>
  <g id="if_ebay_1217113" transform="translate(-19.114 -395.63)">
    <path id="Path_17" data-name="Path 17" class="cls-1" d="M64.218,427.105V395.63h8.957v21.911c7.744-6.994,16.308-8.065,25.373-4.425,8.636,3.462,12.633,11.17,12.1,21.8a41.865,41.865,0,0,1,4.568-4.033c3.462-2.284,7.53-2.926,11.562-3.14,4.818-.285,9.635-.25,14.453-.357h1.891c.714-4.354-1.213-7.887-5.139-9.243a16.54,16.54,0,0,0-11.348-.036,6.678,6.678,0,0,0-4.318,4.211c-.143.393-.535.928-.821.928-2.891.071-5.781.036-8.814.036a11.584,11.584,0,0,1,6.531-9.421c4.354-2.248,9.064-2.784,13.846-2.605a34.025,34.025,0,0,1,8.1,1c2.712.785,5.246,2.32,7.672,3.462-.321-.607-.821-1.677-1.5-3.033,3.462,0,6.709-.036,9.921.071.428,0,.964.785,1.213,1.285,4.6,9.136,9.136,18.271,13.7,27.407.25.535.535,1.035.964,1.82,1.891-3.783,3.711-7.351,5.5-10.956,3.033-6.067,6.031-12.1,8.993-18.2a2.133,2.133,0,0,1,2.248-1.5c2.534.107,5.1.036,8.029.036-.856,1.749-1.606,3.247-2.391,4.746q-12.258,24.142-24.552,48.247a2.173,2.173,0,0,1-2.32,1.427c-2.712-.071-5.424-.036-8.493-.036,1.606-3.069,3.069-5.852,4.532-8.6.928-1.784,1.963-3.533,2.784-5.389a2.7,2.7,0,0,0,.036-2.105q-7.441-14.185-14.988-28.335c-.107-.178-.285-.321-.285-.357v29.762c-2.284,0-4.675.071-7.1-.071-.393,0-.964-.749-1.035-1.213a35.919,35.919,0,0,1-.036-3.961,5.117,5.117,0,0,0-.785.393,17.959,17.959,0,0,1-11.776,6.031,29.192,29.192,0,0,1-12.169-.749c-6.209-1.963-9.171-5.638-9.742-12.6-3.14,7.6-8.458,12.1-16.237,13.275-7.565,1.142-14.417-.428-20.2-6.245-.143,1.749-.285,3.283-.428,4.96H64.075V434.706H28.389a12.255,12.255,0,0,0,2.819,8.029c4.389,5.5,14.274,6.459,19.7,1.927a7.022,7.022,0,0,0,2.105-2.605c.571-1.392,1.463-1.606,2.748-1.57,2.355.071,4.711.036,7.209.036a12.942,12.942,0,0,1-7.1,9.707c-9.136,4.461-18.485,4.568-27.585-.036-4.711-2.391-7.316-6.6-8.493-11.741a26.188,26.188,0,0,1,.571-13.882,17.185,17.185,0,0,1,11.634-11.848,31.3,31.3,0,0,1,18.628-.464c7.173,2.034,11.455,6.852,13.132,14.06l.107.535C63.789,426.927,63.9,426.962,64.218,427.105ZM87.235,447.66a36.555,36.555,0,0,0,5.96-1.57c5.745-2.534,8.707-8.6,7.922-15.7-1.035-9.457-8.386-14.738-17.629-12.669-6.031,1.356-9.992,6.78-10.242,14.132C72.925,440.916,78.671,447.339,87.235,447.66Zm55.884-14.1c-4.5,0-8.993-.107-13.454.036a22.675,22.675,0,0,0-5.745,1.071c-3.247,1-4.6,2.712-4.711,5.5a6.414,6.414,0,0,0,4.354,6.495,16.168,16.168,0,0,0,13.918-1A11.939,11.939,0,0,0,143.119,433.564ZM54.69,428.6c.178-6.745-4.853-11.348-12.383-11.527-7.744-.178-13.561,4.675-13.668,11.527Z"/>
  </g>
</svg>
