<svg xmlns="http://www.w3.org/2000/svg" viewBox="0 0 183.697 199.554">
  <defs>
    <style>
      .cls-1 {
        fill: #010202;
      }
    </style>
  </defs>
  <g id="noun_Finger_Snap_1301441" data-name="noun_Finger Snap_1301441" transform="translate(-712.617 -76.246)">
    <g id="Group_12" data-name="Group 12" transform="translate(712.617 76.246)">
      <path id="Path_34" data-name="Path 34" class="cls-1" d="M300.323,358.252c-16.318-7.97-28.174-32.062-28.291-32.306-.045-.093-.106-.171-.159-.257-.4-.851-.775-1.7-1.221-2.554-8.949-17.115-25.193-30.236-44.615-36.082-3.789-2.417-39.958-25.785-50.011-42.931-2.859-4.878-6.177-7.663-9.862-8.281a9.021,9.021,0,0,0-6.243,1.238c-.272-.192-.457-.31-.5-.335a3.343,3.343,0,0,0-4.185.55c-5.546,5.876-10.357,15.64-12.687,20.818-4.65-5.894-9.416-9.205-14.212-9.768a11.146,11.146,0,0,0-8.807,2.6,3.341,3.341,0,0,0-.844,3.516c3.764,10.784,13.444,28.511,15.4,32.046-1.2,3.831-2.286,7.2-3.028,9.463a14.714,14.714,0,0,0,1.475,12.356c5.891,9.5,15.755,23.218,17.836,26.1a230.676,230.676,0,0,0,7.075,25.685c1.626,4.615,5.554,7,9.017,9.1a20.868,20.868,0,0,1,4.494,3.244c.015.017.034.028.05.045a10.748,10.748,0,0,0,5.423,3.865,216.242,216.242,0,0,0,32.359,7.169c11.319,1.684,21.53,5.855,29.526,12.056A57.322,57.322,0,0,1,251.7,410.233a3.342,3.342,0,0,0,5.648-3.573,63.953,63.953,0,0,0-14.939-16.344,61.139,61.139,0,0,0-6.79-4.549c1.287-.223,2.393-.454,3.208-.642a3.343,3.343,0,0,0-1.506-6.514c-2.515.581-11.207,2.33-17.563.479-.039-.011-.078-.012-.117-.022a78.41,78.41,0,0,0-9.872-2.137,210.2,210.2,0,0,1-31.354-6.939,4.171,4.171,0,0,1-2.723-2.794c-2.528-8.3-8.519-29.4-9.559-46.074a2.522,2.522,0,0,1,1.014-2.132c4.3-3.322,15.169-11.518,23.244-15.833a1.682,1.682,0,0,1,.9-.185c3.685.187,15.194.983,23.194,3.858-2.169,3.124-7.849,7.844-21.982,6.118a3.376,3.376,0,0,0-3.475,2c-1.689,3.927-4.887,10.176-6.7,11.769a3.349,3.349,0,0,0-.593,4.345c.049.076,4.879,7.6,2.656,13.816a3.342,3.342,0,0,0,6.294,2.25,16.2,16.2,0,0,0,.688-2.606c1.553-.527,4.818-.97,9.972,1.415a15.2,15.2,0,0,1-.3,8.291,3.343,3.343,0,0,0,6.286,2.276,21.46,21.46,0,0,0,.791-10.75c5.065-3.254,24.3-14.157,45.55-7.5a3.342,3.342,0,0,0,2-6.379,53.974,53.974,0,0,0-19.04-2.346,28.655,28.655,0,0,1-14.989-10.776,3.342,3.342,0,0,0-5.663,3.551,34.276,34.276,0,0,0,9,8.982,70.032,70.032,0,0,0-20.39,8.785c-5.716-2.736-10.171-2.914-13.273-2.362a29.544,29.544,0,0,0-2.7-8.043,59.477,59.477,0,0,0,5.561-9.824c24.166,1.963,27.928-13.313,28.078-13.988a3.338,3.338,0,0,0-1.756-3.721,46.012,46.012,0,0,0-10.395-3.461c-8.487-8.953-17.2-11.593-17.562-11.7a3.4,3.4,0,0,0-1.441-.1c-2.55.384-5.061.851-7.522,1.367a31.482,31.482,0,0,1-5.28-8.075,3.347,3.347,0,0,0-1.736-1.934c-7.208-3.392-10.262-7.973-11.368-10.137,3.532-6.372,4.7-12.483,3.4-18.191a20.875,20.875,0,0,0-3.339-7.42c.973.228,2.782,1.2,5.024,5.026,11.377,19.4,50.889,44.375,52.566,45.43.025.016.053.02.078.034a3.31,3.31,0,0,0,.758.342c17.909,5.261,32.878,17.26,41.067,32.924,4.839,9.256,6.473,18.548,4.373,24.858-1.282,3.849-6.177,11.12-14.412,15.38a3.342,3.342,0,1,0,3.072,5.935c9.369-4.845,15.733-13.353,17.68-19.205a25.668,25.668,0,0,0,1.2-7.4c5.334,6.992,12.429,14.392,20.749,18.455a3.342,3.342,0,0,0,2.933-6.005ZM126.031,255.019a5.577,5.577,0,0,1,1.53-.035c2.138.25,6.585,2.026,12.438,11-.87,3.5-1.995,7.522-3.175,11.527C133.592,271.409,128.853,262.119,126.031,255.019Zm12.18,49.788a8.04,8.04,0,0,1-.8-6.754c2.839-8.675,7.883-24.58,9.962-34.249.738-1.784,5.283-12.513,10.7-19.534a15.038,15.038,0,0,1,3.983,7.108c1.049,4.61-.272,9.832-3.925,15.518a3.331,3.331,0,0,0-.512,1.458c-.016.15-1.61,15-5.576,22.084a3.341,3.341,0,0,0-.028,3.211l2,3.719c-.776.315-1.518.62-2.182.9a10.76,10.76,0,0,0-6.354,11.951c.31,1.567.643,3.294,1,5.15.166.863.341,1.767.52,2.69C143.935,313.625,140.682,308.79,138.211,304.807ZM191.268,293.6a34.525,34.525,0,0,1,6.026,3.111c-2.27-.214-4.231-.341-5.661-.413a8.282,8.282,0,0,0-4.392.964c-8.215,4.391-18.677,12.186-24.182,16.442a9.192,9.192,0,0,0-3.6,7.837c.845,13.54,4.762,29.673,7.681,40.184a8.457,8.457,0,0,1-3.4-3.834c-5-14.184-8.433-32-10.706-43.789-.361-1.869-.7-3.605-1.008-5.18a4,4,0,0,1,2.4-4.5A165.712,165.712,0,0,1,191.268,293.6Zm-18.737-9.9a37.059,37.059,0,0,0,3.829,6.225c-6.012,1.567-11.488,3.362-16.061,5.027l-1.57-2.925c2.133-4.571,3.546-10.627,4.411-15.381A32.831,32.831,0,0,0,172.532,283.7Z" transform="translate(-118.501 -212.235)"/>
      <path id="Path_35" data-name="Path 35" class="cls-1" d="M418.9,93.8a3.343,3.343,0,0,0,4.25-2.069l3.817-11.053a3.342,3.342,0,1,0-6.318-2.18L416.835,89.55A3.342,3.342,0,0,0,418.9,93.8Z" transform="translate(-372.748 -76.246)"/>
      <path id="Path_36" data-name="Path 36" class="cls-1" d="M302.316,101.381a3.342,3.342,0,0,0,6.251-2.367l-5.173-13.646a3.342,3.342,0,0,0-6.251,2.367Z" transform="translate(-270.652 -82.182)"/>
      <path id="Path_37" data-name="Path 37" class="cls-1" d="M167.787,155.448l13.925,10.3a3.342,3.342,0,0,0,3.975-5.374l-13.925-10.3a3.342,3.342,0,0,0-3.975,5.374Z" transform="translate(-159.374 -138.645)"/>
    </g>
  </g>
</svg>
