<svg xmlns="http://www.w3.org/2000/svg" viewBox="0 0 179.32 212.085">
  <g id="noun_Interest_Rate_Down_1049220" data-name="noun_Interest Rate Down_1049220" transform="translate(-185.213 -120.104)">
    <path id="Path_28" data-name="Path 28" d="M410.083,359.916a3.846,3.846,0,0,0-3.846-3.846H299.5V338.123h15.383a3.846,3.846,0,1,0,0-7.692H299.5V307.125h15.383a3.846,3.846,0,0,0,0-7.692H299.5V276.051h15.383a3.846,3.846,0,1,0,0-7.692H299.5V244.951h15.383a3.846,3.846,0,1,0,0-7.692H299.5V213.774h15.383a3.846,3.846,0,1,0,0-7.692H299.5V195.827a3.846,3.846,0,0,0-7.692,0V359.916a3.846,3.846,0,0,0,3.846,3.846h110.58A3.846,3.846,0,0,0,410.083,359.916Z" transform="translate(-106.599 -59.879)"/>
    <path id="Path_29" data-name="Path 29" d="M521.415,575.441a7.692,7.692,0,0,1,9.974,4.359l23.921,60.867,32.715-32.715a7.692,7.692,0,0,1,12.05,1.513l48.714,81.813,2-16.665a3.846,3.846,0,0,1,3.692-3.384h.462a3.846,3.846,0,0,1,3.359,4.282l-3.846,32.049a4.589,4.589,0,0,1-5.538,3.384l-33.843-10.255a3.846,3.846,0,1,1,2.231-7.358l17.947,5.435L591.82,625.821l-33.946,34.023a7.692,7.692,0,0,1-12.589-2.564l-28.2-71.789a7.692,7.692,0,0,1,4.333-10.05Z" transform="translate(-293.796 -378.882)"/>
    <path id="Path_30" data-name="Path 30" d="M516.622,134.564a15.691,15.691,0,0,1,1.154-6.307,11.2,11.2,0,0,1,3.231-4.307,14.024,14.024,0,0,1,4.923-2.564,22.562,22.562,0,0,1,6.281-.82,25.023,25.023,0,0,1,6.256.744,13,13,0,0,1,4.974,2.436,11.128,11.128,0,0,1,3.23,4.359,18.811,18.811,0,0,1,0,12.973,11.153,11.153,0,0,1-3.23,4.307,13,13,0,0,1-4.974,2.436,26.921,26.921,0,0,1-12.537,0,13,13,0,0,1-4.923-2.436,11.153,11.153,0,0,1-3.231-4.307A16.152,16.152,0,0,1,516.622,134.564Zm55.764-14.46,6.487,6.333L527.6,180.278l-6.256-6.333Zm-45.329,14.46a9.281,9.281,0,0,0,1.154,5.128,4.384,4.384,0,0,0,4.025,1.795,4.589,4.589,0,0,0,3.948-1.564,9.1,9.1,0,0,0,1.154-5.256,9.128,9.128,0,0,0-1.154-5.256,4.589,4.589,0,0,0-3.948-1.564,4.692,4.692,0,0,0-3.974,1.564A8.845,8.845,0,0,0,527.057,134.564Zm25.793,30.561A15.692,15.692,0,0,1,554,158.793a11.178,11.178,0,0,1,3.231-4.307,14.023,14.023,0,0,1,4.923-2.564,22.562,22.562,0,0,1,6.281-.82,25.024,25.024,0,0,1,6.256.744,13,13,0,0,1,4.974,2.436,11.128,11.128,0,0,1,3.23,4.359,18.667,18.667,0,0,1,0,12.922,11.179,11.179,0,0,1-3.23,4.307,13,13,0,0,1-4.974,2.436,26.921,26.921,0,0,1-12.537,0,13,13,0,0,1-4.923-2.436A11.179,11.179,0,0,1,554,171.561,16.153,16.153,0,0,1,552.849,165.125Zm10.435,0a9.282,9.282,0,0,0,1.154,5.128,4.384,4.384,0,0,0,4.025,1.82,4.589,4.589,0,0,0,3.948-1.564,12.549,12.549,0,0,0,0-10.512,4.589,4.589,0,0,0-3.948-1.564A4.692,4.692,0,0,0,564.49,160,8.846,8.846,0,0,0,563.284,165.125Z" transform="translate(-293.874 0)"/>
  </g>
</svg>
