<svg xmlns="http://www.w3.org/2000/svg" viewBox="0 0 181.688 173.1">
  <g id="noun_Wallet_block_763791" data-name="noun_Wallet block_763791" transform="translate(-1184.313 -147.279)">
    <path id="Path_39" data-name="Path 39" d="M175.958,265.034a27.673,27.673,0,1,0,27.673,27.673A27.7,27.7,0,0,0,175.958,265.034Zm0,48.864a21.172,21.172,0,0,1-16.507-34.456l28.232,30.9A21.043,21.043,0,0,1,175.958,313.9Zm16.507-7.933L164.231,275.07a21.171,21.171,0,0,1,28.234,30.895Zm99.445-96.821h-6.749V184.523a16.215,16.215,0,0,0-16.2-16.2H131.543a7.284,7.284,0,0,1,0-14.567H265.727a3.24,3.24,0,1,0,0-6.479H131.543a13.778,13.778,0,0,0-13.762,13.764V279.932a16.215,16.215,0,0,0,16.2,16.2H138.7a3.24,3.24,0,1,0,0-6.479h-4.725a9.731,9.731,0,0,1-9.719-9.719V172.7a13.664,13.664,0,0,0,7.283,2.108H268.963a9.731,9.731,0,0,1,9.719,9.719v24.621H250.335a7.567,7.567,0,0,0-7.559,7.559v31.046a7.567,7.567,0,0,0,7.559,7.559h28.346v24.621a9.731,9.731,0,0,1-9.719,9.719H214.3a3.24,3.24,0,1,0,0,6.479h54.667a16.215,16.215,0,0,0,16.2-16.2V255.308h6.749a7.567,7.567,0,0,0,7.559-7.559V216.7A7.57,7.57,0,0,0,291.91,209.144Zm1.08,38.605a1.082,1.082,0,0,1-1.08,1.08H250.335a1.082,1.082,0,0,1-1.08-1.08V216.7a1.083,1.083,0,0,1,1.08-1.08H291.91a1.083,1.083,0,0,1,1.08,1.08Zm-33.072-26.388a3.241,3.241,0,0,0-3.24,3.24v15.254a3.24,3.24,0,0,0,6.479,0V224.6A3.239,3.239,0,0,0,259.918,221.362Zm5.81-63.559H133.979a3.24,3.24,0,0,0,0,6.479H265.727a3.24,3.24,0,0,0,0-6.479Z" transform="translate(1066.531)"/>
  </g>
</svg>
