<svg xmlns="http://www.w3.org/2000/svg" viewBox="0 0 133.218 130.304">
  <defs>
    <style>
      .cls-1 {
        fill: #fff;
      }
    </style>
  </defs>
  <g id="if_18-youtube_104482" transform="translate(-106.474 -149.281)">
    <path id="Path_11" data-name="Path 11" class="cls-1" d="M215.358,785.672h-84.55a24.342,24.342,0,0,0-24.334,24.342v19.559a24.34,24.34,0,0,0,24.334,24.339h84.55a24.342,24.342,0,0,0,24.334-24.339V810.014A24.344,24.344,0,0,0,215.358,785.672ZM148.571,800.9h-7.86v39.058h-7.594V800.9h-7.855v-6.644h23.31Zm22.2,39.058h-6.736v-3.694a14.412,14.412,0,0,1-3.889,3.113,8.119,8.119,0,0,1-3.914,1.076,4.193,4.193,0,0,1-3.523-1.508,7.268,7.268,0,0,1-1.182-4.52V806.239h6.736V832.1a2.884,2.884,0,0,0,.418,1.727,1.654,1.654,0,0,0,1.385.535,3.83,3.83,0,0,0,1.877-.706,9.1,9.1,0,0,0,2.091-1.814v-25.61h6.736ZM195.232,833a8.4,8.4,0,0,1-1.586,5.489,5.6,5.6,0,0,1-4.579,1.9,8.027,8.027,0,0,1-3.528-.733,8.66,8.66,0,0,1-2.882-2.284v2.583h-6.817v-45.7h6.817v14.719a10.515,10.515,0,0,1,2.885-2.339,6.614,6.614,0,0,1,3.113-.8,5.819,5.819,0,0,1,4.881,2.148c1.13,1.437,1.692,3.542,1.692,6.3V833ZM218.6,823.91H205.708v6.353a7.35,7.35,0,0,0,.657,3.691,2.514,2.514,0,0,0,2.287,1.027,2.788,2.788,0,0,0,2.344-.872c.435-.587.668-1.863.668-3.846v-1.535H218.6v1.73c0,3.455-.839,6.06-2.542,7.817-1.676,1.741-4.2,2.6-7.559,2.6a9.289,9.289,0,0,1-7.135-2.773,10.765,10.765,0,0,1-2.6-7.646V815.316a9.512,9.512,0,0,1,2.871-7.152A10.164,10.164,0,0,1,209,805.408q4.632,0,7.114,2.556t2.483,7.35Z" transform="translate(0 -574.328)"/>
    <path id="Path_12" data-name="Path 12" class="cls-1" d="M1127.014,1048.473a2.674,2.674,0,0,0-2.309.932,4.908,4.908,0,0,0-.7,3.02v3.409h5.957v-3.409a4.932,4.932,0,0,0-.712-3.02A2.581,2.581,0,0,0,1127.014,1048.473Z" transform="translate(-918.297 -811.499)"/>
    <path id="Path_13" data-name="Path 13" class="cls-1" d="M890.479,1047.3a3.319,3.319,0,0,0-1.426.326,4.827,4.827,0,0,0-1.391,1.032v21a5.757,5.757,0,0,0,1.6,1.2,3.961,3.961,0,0,0,1.63.361,2.189,2.189,0,0,0,1.82-.723,3.7,3.7,0,0,0,.579-2.32v-17.413a4.03,4.03,0,0,0-.706-2.594A2.61,2.61,0,0,0,890.479,1047.3Z" transform="translate(-705.003 -810.443)"/>
    <path id="Path_14" data-name="Path 14" class="cls-1" d="M375.38,199.632h8.54V178.745l9.944-29.465h-8.681L379.9,169.407h-.538L373.81,149.28h-8.6l10.172,30.4Z" transform="translate(-233.501)"/>
    <path id="Path_15" data-name="Path 15" class="cls-1" d="M676.286,314.128q5.174,0,8.127-2.713a9.68,9.68,0,0,0,2.939-7.475V284.753a8.938,8.938,0,0,0-3-6.951,11.184,11.184,0,0,0-7.725-2.692,12.458,12.458,0,0,0-8.238,2.556,8.492,8.492,0,0,0-3.061,6.875v19.252a9.836,9.836,0,0,0,2.988,7.532A11.193,11.193,0,0,0,676.286,314.128Zm-3.145-29.869a2.527,2.527,0,0,1,.858-1.969,3.362,3.362,0,0,1,2.265-.742,3.754,3.754,0,0,1,2.434.742,2.434,2.434,0,0,1,.924,1.969V304.5a3.051,3.051,0,0,1-.913,2.347,3.418,3.418,0,0,1-2.444.85,3.046,3.046,0,0,1-2.32-.842,3.261,3.261,0,0,1-.807-2.358V284.258Z" transform="translate(-504.353 -113.559)"/>
    <path id="Path_16" data-name="Path 16" class="cls-1" d="M959.6,322.431a9.545,9.545,0,0,0,4.4-1.19,16.084,16.084,0,0,0,4.37-3.466v4.115h7.586V284.747H968.37V312.94a10.5,10.5,0,0,1-2.333,2,4.4,4.4,0,0,1-2.121.782,1.825,1.825,0,0,1-1.543-.6,3.035,3.035,0,0,1-.489-1.9V284.747h-7.575V315.79a7.835,7.835,0,0,0,1.325,4.965A4.777,4.777,0,0,0,959.6,322.431Z" transform="translate(-765.151 -122.255)"/>
  </g>
</svg>
